<svg xmlns="http://www.w3.org/2000/svg" width="96" height="96" viewBox="-115 0 687 799">
    <path fill="#eb3c00" d="M229.53 535.895c-74.615 0-135.1-60.965-135.1-136.172s60.485-136.172 135.1-136.172 135.1 60.965 135.1 136.172-60.485 136.172-135.1 136.172zm366.385-188.546l-142.831 83.114.652-3.909.406-3.465.467-5.748.026-.435.027-.4.273-7.019.053-7.703-.106-5.579-.353-7.996-.52-7.33-.784-7.925-.538-4.353-1.128-7.712-1.331-7.578-1.551-7.419-1.755-7.276-1.207-4.487-2.09-7.027-2.291-6.877-2.054-5.606-2.68-6.636-2.864-6.495-3.05-6.308-3.305-6.272-3.5-6.157-.317-.516-3.764-6.068-3.993-5.97-4.222-5.864-4.478-5.81-4.76-5.748-.537-.631-5.042-5.668-5.307-5.589-5.623-5.561-5.932-5.527-.468-.417-6.284-5.49-6.69-5.509-6.717-5.25-7.52-5.571-8.126-5.713-6.09-4.113-9.318-6.033-10.507-6.539-3.49-2.114-12.896-7.659-3.19-1.874-8.12-4.727L1.33.52v105.583l142.822 83.113-3.676 1.377-3.182 1.378-5.165 2.46-.397.205-.37.186-6.161 3.27-6.629 3.802-4.75 2.879-6.691 4.3-6.038 4.131-6.417 4.647-3.508 2.665-6.056 4.833-5.826 4.949-5.597 5.055-5.36 5.162-3.27 3.314-4.989 5.33-4.75 5.43-3.8 4.619-4.354 5.642-4.143 5.739-3.914 5.837-3.728 6.006-3.526 6.13-.318.569-3.314 6.308-3.12 6.459-2.935 6.61-2.742 6.805-2.565 7.01-.282.826-2.344 7.223-2.142 7.41-1.975 7.667-1.772 7.934-.132.657-1.569 8.219-1.392 8.573-1.155 8.52-1.023 9.338-.846 9.933-.493 7.4-.52 11.132-.362 12.412-.08 4.158-.131 15.05-.01 3.75-.008 9.452V798.52l90.71-52.791V579.5l3.059 2.532 2.741 2.079 4.751 3.305.326.213.247.169 5.932 3.776 6.638 3.918 4.795 2.674 7.096 3.723 6.505 3.18 7.263 3.305 3.799 1.626 7.237 2.896 7.228 2.648 7.21 2.372 7.166 2.123 4.363 1.173 7.14 1.697 7.096 1.448 5.756.986 7.078 1.004 7.069.747 6.849.48 7.078.266 7.096.018.458-.01 7.131-.257 7.184-.497 7.201-.755 7.29-1.022 7.369-1.28.652-.133 7.44-1.572 7.51-1.848 7.642-2.15 7.783-2.444.423-.142 7.907-2.754 8.144-3.11 7.748-3.198 8.612-3.811 9.044-4.265 6.443-3.207 9.917-5.144 10.947-5.953 3.412-1.91 13.116-7.472 3.12-1.803 8.118-4.718 289.16-168.271-90.71-52.783z"/>
</svg>
